<?xml version="1.0" encoding="utf-8"?>
<!-- Generator: Adobe Illustrator 28.1.0, SVG Export Plug-In . SVG Version: 6.00 Build 0)  -->
<svg version="1.1" id="Camada_1" xmlns="http://www.w3.org/2000/svg" xmlns:xlink="http://www.w3.org/1999/xlink" x="0px" y="0px"
	 viewBox="0 0 1920 554.95" style="enable-background:new 0 0 1920 554.95;" xml:space="preserve">
<style type="text/css">
	.st0{fill-rule:evenodd;clip-rule:evenodd;fill:#18315C;}
	.st1{fill-rule:evenodd;clip-rule:evenodd;fill:#D82F15;}
	.st2{fill-rule:evenodd;clip-rule:evenodd;fill:#18274E;}
</style>
<g>
	<path class="st0" d="M953.42,317.93V184.5h37.28c11.08,0,20.02,2.79,26.79,8.35c6.79,5.59,10.17,12.94,10.17,22.14
		c0,7.47-2,14.03-6,19.64c-3.97,5.61-9.61,9.67-16.91,12.14v0.35c8.88,0.85,16.05,4.18,21.49,10c5.41,5.79,8.11,13.32,8.11,22.55
		c0,11.32-4.06,20.52-12.17,27.61c-8.11,7.09-18.38,10.64-30.78,10.64H953.42L953.42,317.93z M968.06,198.12v43.84h16.17
		c8.85,0,15.76-2.12,20.7-6.32c4.91-4.23,7.38-10.14,7.38-17.7c0-13.23-8.59-19.82-25.81-19.82H968.06L968.06,198.12z
		 M968.06,255.48v48.84h21.61c9.2,0,16.38-2.2,21.58-6.59c5.2-4.38,7.79-10.47,7.79-18.23c0-16.02-10.97-24.02-32.9-24.02H968.06
		L968.06,255.48z M1158.62,264.27c0,37.25-16.82,55.89-50.4,55.89c-32.05,0-48.07-17.94-48.07-53.84V184.5h14.64v80.8
		c0,27.73,11.73,41.6,35.22,41.6c22.64,0,33.96-13.38,33.96-40.13V184.5h14.64V264.27L1158.62,264.27z M1186.08,294.85
		c3.73,3.38,9.11,6.2,16.14,8.47c7.03,2.29,13.52,3.41,19.52,3.41c19.41,0,29.11-7.06,29.11-21.2c0-3.94-1-7.47-3.03-10.59
		c-2-3.09-4.7-5.79-8.14-8.06c-3.41-2.26-10.14-5.97-20.2-11.14c-14.47-7.41-23.61-13.88-27.46-19.38
		c-3.85-5.53-5.76-11.76-5.76-18.7c0-10.73,4.35-19.32,13.08-25.76c8.73-6.44,19.7-9.64,32.9-9.64c13.32,0,22.76,1.56,28.34,4.73
		v16.96c-7.82-5.41-17.91-8.08-30.23-8.08c-8.47,0-15.35,1.79-20.7,5.38c-5.32,3.59-8,8.61-8,15.11c0,4.03,0.94,7.5,2.79,10.47
		c1.88,2.94,4.41,5.53,7.61,7.7c3.24,2.18,9.5,5.59,18.79,10.26c13.08,6.47,22.26,12.82,27.49,18.99c5.2,6.18,7.82,13.08,7.82,20.7
		c0,11.38-4.12,20.17-12.41,26.37c-8.26,6.2-19.82,9.29-34.69,9.29c-4.56,0-10.44-0.74-17.7-2.23c-7.26-1.5-12.38-3.29-15.29-5.44
		V294.85L1186.08,294.85z M1307.81,317.93h-14.64V184.5h14.64V317.93L1307.81,317.93z M1450,317.93h-18.41l-69.62-107.76
		c-1.53-2.53-2.91-5.2-4.12-8.03h-0.53c0.47,2.76,0.71,8.73,0.71,17.94v97.85h-14.73V184.5h19.46l67.68,106.64
		c3.47,5.5,5.26,8.56,5.44,9.11h0.35c-0.65-4.41-0.97-11.11-0.97-20.05v-95.7H1450V317.93L1450,317.93z M1555.44,317.93h-70.09
		V184.5h67.1v13.44h-52.45v45.4h48.48v13.44h-48.48v47.72h55.45V317.93L1555.44,317.93z M1575.2,294.85
		c3.73,3.38,9.11,6.2,16.14,8.47c7.03,2.29,13.52,3.41,19.52,3.41c19.41,0,29.11-7.06,29.11-21.2c0-3.94-1-7.47-3.03-10.59
		c-2-3.09-4.7-5.79-8.14-8.06c-3.41-2.26-10.14-5.97-20.2-11.14c-14.47-7.41-23.61-13.88-27.46-19.38
		c-3.85-5.53-5.76-11.76-5.76-18.7c0-10.73,4.35-19.32,13.08-25.76c8.73-6.44,19.7-9.64,32.9-9.64c13.32,0,22.76,1.56,28.34,4.73
		v16.96c-7.82-5.41-17.91-8.08-30.23-8.08c-8.47,0-15.35,1.79-20.7,5.38c-5.32,3.59-8,8.61-8,15.11c0,4.03,0.94,7.5,2.79,10.47
		c1.88,2.94,4.41,5.53,7.61,7.7c3.23,2.18,9.5,5.59,18.79,10.26c13.08,6.47,22.26,12.82,27.49,18.99c5.2,6.18,7.82,13.08,7.82,20.7
		c0,11.38-4.12,20.17-12.41,26.37c-8.26,6.2-19.82,9.29-34.69,9.29c-4.56,0-10.44-0.74-17.7-2.23c-7.26-1.5-12.38-3.29-15.29-5.44
		V294.85L1575.2,294.85z M1676.08,294.85c3.73,3.38,9.11,6.2,16.14,8.47c7.03,2.29,13.52,3.41,19.52,3.41
		c19.41,0,29.11-7.06,29.11-21.2c0-3.94-1-7.47-3.03-10.59c-2-3.09-4.7-5.79-8.14-8.06c-3.41-2.26-10.14-5.97-20.2-11.14
		c-14.47-7.41-23.61-13.88-27.46-19.38c-3.85-5.53-5.76-11.76-5.76-18.7c0-10.73,4.35-19.32,13.08-25.76
		c8.73-6.44,19.7-9.64,32.9-9.64c13.32,0,22.76,1.56,28.34,4.73v16.96c-7.82-5.41-17.91-8.08-30.23-8.08
		c-8.47,0-15.35,1.79-20.7,5.38c-5.32,3.59-8,8.61-8,15.11c0,4.03,0.94,7.5,2.79,10.47c1.88,2.94,4.41,5.53,7.61,7.7
		c3.24,2.18,9.5,5.59,18.79,10.26c13.08,6.47,22.26,12.82,27.49,18.99c5.2,6.18,7.82,13.08,7.82,20.7
		c0,11.38-4.12,20.17-12.41,26.37c-8.26,6.2-19.82,9.29-34.69,9.29c-4.56,0-10.44-0.74-17.7-2.23c-7.26-1.5-12.38-3.29-15.29-5.44
		V294.85z"/>
	<path class="st0" d="M1076.68,476.88h-22.73l-12.5-34.72h-53.42l-11.88,34.72h-22.73l50.31-133.43h22.99L1076.68,476.88
		L1076.68,476.88z M1035.69,425.02l-18.61-52.63c-0.71-1.88-1.38-5.23-2.09-10.08h-0.59c-0.53,3.97-1.24,7.29-2.15,9.91
		l-18.52,52.81H1035.69L1035.69,425.02z M1185.32,471.62c-9.88,5-22.32,7.5-37.31,7.5c-19.29,0-34.75-6.06-46.37-18.2
		c-11.64-12.17-17.46-28.2-17.46-48.13c0-20.79,6.47-37.9,19.35-51.37c12.91-13.47,29.52-20.2,49.84-20.2
		c12.79,0,23.46,1.76,31.96,5.32v20.94c-9.41-5.26-19.85-7.91-31.28-7.91c-14.53,0-26.17,4.76-34.96,14.35
		c-8.79,9.56-13.17,22.05-13.17,37.49c0,14.76,4.12,26.73,12.35,35.84c8.23,9.14,19.29,13.7,33.14,13.7
		c12.85,0,24.17-2.97,33.93-8.88V471.62L1185.32,471.62z M1319.25,476.88h-22.73l-12.5-34.72h-53.43l-11.88,34.72h-22.73
		l50.31-133.43h22.99L1319.25,476.88L1319.25,476.88z M1278.26,425.02l-18.61-52.63c-0.71-1.88-1.38-5.23-2.09-10.08h-0.59
		c-0.53,3.97-1.24,7.29-2.15,9.91l-18.52,52.81H1278.26L1278.26,425.02z M1337.86,476.88V343.46h40.49
		c47.1,0,70.65,21.67,70.65,65.04c0,20.85-6.7,37.46-20.11,49.84c-13.41,12.38-30.61,18.55-51.57,18.55H1337.86L1337.86,476.88z
		 M1358.56,361.19v97.94h18.17c15.73,0,28.08-4.38,37.08-13.2c9-8.82,13.47-21.14,13.47-37.02c0-15.55-4.26-27.4-12.82-35.52
		c-8.56-8.12-20.96-12.2-37.22-12.2H1358.56L1358.56,361.19z M1547.79,476.88h-73.92V343.46h70.89v17.73h-50.19v39.28h46.57v17.67
		h-46.57v40.99h53.22V476.88L1547.79,476.88z M1693.22,476.88v-86.15c0-7.53,0.38-16.44,1.21-26.79h-0.53
		c-1.73,7.41-3.09,12.26-4.06,14.55l-40.57,98.38h-13.53l-40.72-97.59c-1.03-2.47-2.38-7.59-4.06-15.35h-0.53
		c0.59,8.06,0.88,17.76,0.88,29.11v83.83h-19.23V343.46h28.87l36.08,88.12c2.82,6.88,4.7,12.61,5.62,17.14h0.59
		c1.09-3.62,3.12-9.41,6.03-17.41l36.69-87.85h27.76v133.43H1693.22L1693.22,476.88z M1838.7,343.46l-43.78,84.77v48.66h-20.76
		v-48.25l-42.72-85.18h23.7l26.87,56.6c0,0.06,1.06,3.09,3.18,9.12h0.26c0.71-2.97,1.82-5.97,3.35-8.94l27.93-56.78H1838.7z"/>
	<path class="st1" d="M975.63,100.33c0,7.75-1.49,13.49-4.46,17.19c-2.97,3.7-7,5.56-12.07,5.56c-2.26,0-4.15-0.32-5.68-0.98v-6.66
		c1.53,1.05,3.47,1.58,5.84,1.58c6.45,0,9.66-5.56,9.66-16.68V60.97h6.7V100.33L975.63,100.33z M990.13,81.56
		c4.29-2.76,9.19-4.13,14.71-4.13c10.12,0,15.18,5.37,15.18,16.12v28.51h-6.58v-6.86h-0.24c-3.02,5.26-7.48,7.89-13.41,7.89
		c-4.31,0-7.71-1.14-10.19-3.45c-2.49-2.3-3.73-5.34-3.73-9.13c0-8.08,4.79-12.8,14.35-14.16l13.18-1.9
		c0-7.56-3.03-11.36-9.07-11.36c-5.28,0-10.01,1.8-14.2,5.41V81.56L990.13,81.56z M1002.71,101.35c-3.73,0.5-6.33,1.4-7.79,2.71
		c-1.45,1.29-2.18,3.3-2.18,6c0,2.18,0.78,3.96,2.34,5.33c1.56,1.36,3.61,2.05,6.14,2.05c3.49,0,6.39-1.25,8.71-3.74
		c2.31-2.5,3.47-5.61,3.47-9.34v-4.43L1002.71,101.35L1002.71,101.35z M1069.15,122.06h-6.58V97.13c0-9.41-3.45-14.11-10.32-14.11
		c-3.61,0-6.57,1.35-8.88,4.04c-2.31,2.69-3.46,6.07-3.46,10.11v24.89h-6.6V78.45h6.6v7.3h0.19c3.26-5.55,8.04-8.32,14.32-8.32
		c4.78,0,8.44,1.53,10.96,4.6c2.53,3.08,3.78,7.54,3.78,13.38V122.06L1069.15,122.06z M1119.32,118.62
		c0,15.99-7.58,23.97-22.72,23.97c-5.36,0-10.08-1.04-14.16-3.11v-6.7c4.93,2.73,9.62,4.1,14.12,4.1c10.81,0,16.21-5.8,16.21-17.39
		v-4.86h-0.15c-3.42,5.63-8.44,8.44-15.08,8.44c-5.46,0-9.84-1.95-13.12-5.87c-3.29-3.92-4.93-9.1-4.93-15.55
		c0-7.43,1.79-13.34,5.4-17.7c3.61-4.36,8.45-6.54,14.55-6.54c5.91,0,10.31,2.37,13.18,7.13h0.15v-6.11h6.56V118.62L1119.32,118.62z
		 M1112.76,95.8c0-3.55-1.22-6.57-3.66-9.06c-2.45-2.48-5.4-3.72-8.84-3.72c-4.36,0-7.79,1.6-10.31,4.81
		c-2.5,3.2-3.76,7.66-3.76,13.37c0,4.94,1.2,8.9,3.62,11.86c2.42,2.95,5.56,4.43,9.42,4.43c3.92,0,7.16-1.41,9.71-4.24
		c2.56-2.83,3.82-6.43,3.82-10.82V95.8L1112.76,95.8z M1168.53,122.06h-6.58v-6.91h-0.16c-2.87,5.29-7.35,7.93-13.45,7.93
		c-10.41,0-15.61-6.19-15.61-18.57V78.45h6.5v24.96c0,9.39,3.58,14.08,10.73,14.08c3.53,0,6.41-1.31,8.64-3.9
		c2.23-2.6,3.35-5.94,3.35-10.01V78.45h6.58V122.06L1168.53,122.06z M1181.89,62.75c0-1.24,0.42-2.29,1.24-3.14
		c0.83-0.86,1.83-1.28,3.02-1.28c1.24,0,2.29,0.43,3.14,1.29c0.86,0.88,1.28,1.91,1.28,3.12c0,1.16-0.42,2.17-1.28,3.03
		c-0.85,0.87-1.9,1.3-3.14,1.3c-1.24,0-2.25-0.42-3.06-1.27C1182.3,64.99,1181.89,63.96,1181.89,62.75L1181.89,62.75z
		 M1182.8,122.06V78.45h6.56v43.61H1182.8L1182.8,122.06z M1238.48,101.87h-30.92c0.13,5.02,1.47,8.87,3.98,11.55
		c2.53,2.69,5.99,4.02,10.38,4.02c4.91,0,9.45-1.64,13.61-4.93v6.31c-3.82,2.84-8.87,4.25-15.14,4.25c-6.08,0-10.88-1.98-14.38-5.95
		c-3.51-3.97-5.26-9.56-5.26-16.76c0-6.64,1.9-12.11,5.69-16.45c3.8-4.33,8.55-6.5,14.25-6.5c5.6,0,9.96,1.83,13.1,5.52
		c3.12,3.67,4.68,8.8,4.68,15.37V101.87L1238.48,101.87z M1231.7,96.07c-0.03-4.09-1.01-7.28-2.95-9.56
		c-1.95-2.27-4.67-3.42-8.17-3.42c-3.18,0-5.98,1.14-8.37,3.43c-2.41,2.29-3.93,5.48-4.56,9.54H1231.7L1231.7,96.07z M1232.03,71.54
		h-4.89l-6.95-9.5l-6.89,9.5h-4.86l9.11-13.76h5.32L1232.03,71.54L1232.03,71.54z M1270.35,122.06V60.97h16.56
		c21.48,0,32.22,9.92,32.22,29.77c0,9.52-2.89,17.11-8.68,22.79c-5.79,5.68-13.84,8.52-24.17,8.52H1270.35L1270.35,122.06z
		 M1277.06,67.13v48.78h9.3c8.13,0,14.44-2.18,18.97-6.54c4.52-4.37,6.78-10.51,6.78-18.43c0-15.87-8.45-23.81-25.36-23.81H1277.06
		L1277.06,67.13z M1329.5,62.75c0-1.24,0.42-2.29,1.24-3.14c0.83-0.86,1.83-1.28,3.01-1.28c1.24,0,2.29,0.43,3.14,1.29
		c0.86,0.88,1.28,1.91,1.28,3.12c0,1.16-0.42,2.17-1.28,3.03c-0.85,0.87-1.9,1.3-3.14,1.3s-2.25-0.42-3.06-1.27
		C1329.9,64.99,1329.5,63.96,1329.5,62.75L1329.5,62.75z M1330.4,122.06V78.45h6.56v43.61H1330.4L1330.4,122.06z M1387.15,122.06
		h-6.58V97.13c0-9.41-3.45-14.11-10.32-14.11c-3.61,0-6.57,1.35-8.88,4.04c-2.31,2.69-3.46,6.07-3.46,10.11v24.89h-6.6V78.45h6.6
		v7.3h0.19c3.26-5.55,8.04-8.32,14.32-8.32c4.78,0,8.44,1.53,10.96,4.6c2.53,3.08,3.78,7.54,3.78,13.38V122.06L1387.15,122.06z
		 M1399.57,62.75c0-1.24,0.42-2.29,1.24-3.14c0.83-0.86,1.83-1.28,3.01-1.28c1.24,0,2.29,0.43,3.14,1.29
		c0.86,0.88,1.28,1.91,1.28,3.12c0,1.16-0.42,2.17-1.28,3.03c-0.85,0.87-1.9,1.3-3.14,1.3c-1.24,0-2.25-0.42-3.06-1.27
		C1399.98,64.99,1399.57,63.96,1399.57,62.75L1399.57,62.75z M1400.47,122.06V78.45h6.56v43.61H1400.47L1400.47,122.06z
		 M1451.27,122.06h-35.58v-1.94l26.03-35.99h-23.62v-5.68h33.45v1.7l-26.15,36.23h25.87V122.06z"/>
	<rect x="863.9" y="57.78" class="st2" width="12.82" height="421.34"/>
	<path class="st0" d="M219.14,485.14c45.75,0,83.67-13.24,109.55-39.12c25.88-25.88,39.73-62,39.73-112.56V57.78
		c-83.69,0-167.37,0-251.06,0v83.67h155.96v187.8c0,48.75-21.07,69.82-56.58,69.82c-29.49,0-52.97-15.65-77.04-42.13L81.3,421.94
		C110.19,456.25,153.53,485.14,219.14,485.14z"/>
	<path class="st1" d="M392.1,479.12h164.32c132.42,0,223.91-92.09,223.91-210.67v-1.2c0-118.58-91.49-209.47-223.91-209.47H392.1
		v83.67h92.67h0.02h33.66h37.97c75.24,0,127,52.37,127,127v1.2c0,74.64-51.77,125.8-127,125.8H484.8V169.6h-0.02H392.1V479.12z"/>
</g>
</svg>
